ply
format ascii 1.0
comment VCGLIB generated
comment TextureFile Warehouse_WoodCrate_.png
element vertex 320
property float x
property float y
property float z
property float nx
property float ny
property float nz
property uchar red
property uchar green
property uchar blue
property uchar alpha
property float texture_u
property float texture_v
element face 192
property list uchar int vertex_indices
end_header
15.80628 8.302543 14.1922 0.5773503 0.5773504 0.5773501 255 255 255 255 0.985437 0.985437
14.76711 8.302543 13.15303 -0.5773503 0.5773501 -0.5773504 255 255 255 255 0.014563 0.014563
14.76711 8.302543 14.1922 -0.5773503 0.5773504 0.5773502 255 255 255 255 0.985437 0.014563
14.76711 8.302543 13.15303 -0.5773503 0.5773501 -0.5773504 255 255 255 255 0.985437 0.014563
15.80628 7.26337 13.15303 0.5773503 -0.5773504 -0.5773501 255 255 255 255 0.014563 0.985437
14.76711 7.26337 13.15303 -0.5773503 -0.5773504 -0.5773502 255 255 255 255 0.014563 0.014563
15.80628 8.302543 13.15303 0.5773503 0.5773501 -0.5773504 255 255 255 255 0.985437 0.014563
15.80628 7.26337 14.1922 0.5773503 -0.5773501 0.5773504 255 255 255 255 0.014563 0.985437
15.80628 7.26337 13.15303 0.5773503 -0.5773504 -0.5773501 255 255 255 255 0.014563 0.014563
14.76711 7.26337 14.1922 -0.5773503 -0.5773501 0.5773504 255 255 255 255 0.014563 0.985437
15.80628 7.26337 13.15303 0.5773503 -0.5773504 -0.5773501 255 255 255 255 0.985437 0.014563
15.80628 7.26337 14.1922 0.5773503 -0.5773501 0.5773504 255 255 255 255 0.985437 0.985437
14.76711 7.26337 13.15303 -0.5773503 -0.5773504 -0.5773502 255 255 255 255 0.014563 0.985437
14.76711 7.26337 14.1922 -0.5773503 -0.5773501 0.5773504 255 255 255 255 0.014563 0.014563
15.80628 8.302543 14.1922 0.5773503 0.5773504 0.5773501 255 255 255 255 0.985437 0.014563
15.80628 7.26337 14.1922 0.5773503 -0.5773501 0.5773504 255 255 255 255 0.014563 0.014563
5.109051 1.465555 5.070965 0.5773504 0.5773504 0.5773501 255 255 255 255 0.985437 0.985437
4.069878 1.465555 4.031792 -0.5773504 0.5773501 -0.5773504 255 255 255 255 0.014563 0.014563
4.069878 1.465555 5.070965 -0.5773502 0.5773504 0.5773502 255 255 255 255 0.985437 0.014563
4.069878 1.465555 4.031792 -0.5773504 0.5773501 -0.5773504 255 255 255 255 0.985437 0.014563
5.109051 0.4263816 4.031792 0.5773504 -0.5773504 -0.5773501 255 255 255 255 0.014563 0.985437
4.069878 0.4263816 4.031792 -0.5773502 -0.5773504 -0.5773502 255 255 255 255 0.014563 0.014563
5.109051 1.465555 4.031792 0.5773502 0.5773502 -0.5773504 255 255 255 255 0.985437 0.014563
5.109051 0.4263816 5.070965 0.5773502 -0.5773502 0.5773504 255 255 255 255 0.014563 0.985437
5.109051 0.4263816 4.031792 0.5773504 -0.5773504 -0.5773501 255 255 255 255 0.014563 0.014563
4.069878 0.4263816 5.070965 -0.5773504 -0.5773501 0.5773504 255 255 255 255 0.014563 0.985437
5.109051 0.4263816 4.031792 0.5773504 -0.5773504 -0.5773501 255 255 255 255 0.985437 0.014563
5.109051 0.4263816 5.070965 0.5773502 -0.5773502 0.5773504 255 255 255 255 0.985437 0.985437
4.069878 0.4263816 4.031792 -0.5773502 -0.5773504 -0.5773502 255 255 255 255 0.014563 0.985437
4.069878 0.4263816 5.070965 -0.5773504 -0.5773501 0.5773504 255 255 255 255 0.014563 0.014563
5.109051 1.465555 5.070965 0.5773504 0.5773504 0.5773501 255 255 255 255 0.985437 0.014563
5.109051 0.4263816 5.070965 0.5773502 -0.5773502 0.5773504 255 255 255 255 0.014563 0.014563
5.14472 1.562061 6.870177 0.5773503 0.5773504 0.5773502 255 255 255 255 0.985437 0.985437
4.034208 1.56206 5.759666 -0.5773503 0.5773501 -0.5773504 255 255 255 255 0.014563 0.014563
4.034208 1.562061 6.870177 -0.5773503 0.5773504 0.5773502 255 255 255 255 0.985437 0.014563
4.034208 1.56206 5.759666 -0.5773503 0.5773501 -0.5773504 255 255 255 255 0.985437 0.014563
5.14472 0.45155 5.759666 0.5773503 -0.5773504 -0.5773502 255 255 255 255 0.014563 0.985437
4.034208 0.45155 5.759666 -0.5773503 -0.5773504 -0.5773502 255 255 255 255 0.014563 0.014563
5.14472 1.56206 5.759666 0.5773503 0.5773502 -0.5773504 255 255 255 255 0.985437 0.014563
5.14472 0.4515505 6.870177 0.5773503 -0.5773502 0.5773504 255 255 255 255 0.014563 0.985437
5.14472 0.45155 5.759666 0.5773503 -0.5773504 -0.5773502 255 255 255 255 0.014563 0.014563
4.034208 0.4515505 6.870177 -0.5773503 -0.5773501 0.5773504 255 255 255 255 0.014563 0.985437
5.14472 0.45155 5.759666 0.5773503 -0.5773504 -0.5773502 255 255 255 255 0.985437 0.014563
5.14472 0.4515505 6.870177 0.5773503 -0.5773502 0.5773504 255 255 255 255 0.985437 0.985437
4.034208 0.45155 5.759666 -0.5773503 -0.5773504 -0.5773502 255 255 255 255 0.014563 0.985437
4.034208 0.4515505 6.870177 -0.5773503 -0.5773501 0.5773504 255 255 255 255 0.014563 0.014563
5.14472 1.562061 6.870177 0.5773503 0.5773504 0.5773502 255 255 255 255 0.985437 0.014563
5.14472 0.4515505 6.870177 0.5773503 -0.5773502 0.5773504 255 255 255 255 0.014563 0.014563
10.33993 1.562061 6.870177 0.5773503 0.5773503 0.5773501 255 255 255 255 0.985437 0.985437
9.229414 1.56206 5.759666 -0.5773504 0.5773501 -0.5773504 255 255 255 255 0.014563 0.014563
9.229414 1.562061 6.870177 -0.5773503 0.5773504 0.5773502 255 255 255 255 0.985437 0.014563
9.229414 1.56206 5.759666 -0.5773504 0.5773501 -0.5773504 255 255 255 255 0.985437 0.014563
10.33993 0.45155 5.759666 0.5773503 -0.5773503 -0.5773501 255 255 255 255 0.014563 0.985437
9.229414 0.45155 5.759666 -0.5773503 -0.5773504 -0.5773502 255 255 255 255 0.014563 0.014563
10.33993 1.56206 5.759666 0.5773503 0.5773502 -0.5773504 255 255 255 255 0.985437 0.014563
10.33993 0.4515505 6.870177 0.5773503 -0.5773502 0.5773504 255 255 255 255 0.014563 0.985437
10.33993 0.45155 5.759666 0.5773503 -0.5773503 -0.5773501 255 255 255 255 0.014563 0.014563
9.229414 0.4515505 6.870177 -0.5773504 -0.5773501 0.5773504 255 255 255 255 0.014563 0.985437
10.33993 0.45155 5.759666 0.5773503 -0.5773503 -0.5773501 255 255 255 255 0.985437 0.014563
10.33993 0.4515505 6.870177 0.5773503 -0.5773502 0.5773504 255 255 255 255 0.985437 0.985437
9.229414 0.45155 5.759666 -0.5773503 -0.5773504 -0.5773502 255 255 255 255 0.014563 0.985437
9.229414 0.4515505 6.870177 -0.5773504 -0.5773501 0.5773504 255 255 255 255 0.014563 0.014563
10.33993 1.562061 6.870177 0.5773503 0.5773503 0.5773501 255 255 255 255 0.985437 0.014563
10.33993 0.4515505 6.870177 0.5773503 -0.5773502 0.5773504 255 255 255 255 0.014563 0.014563
27.59549 1.56206 -5.559571 0.5773503 0.5773504 0.5773501 255 255 255 255 0.985437 0.985437
26.48498 1.56206 -6.670083 -0.5773503 0.5773502 -0.5773504 255 255 255 255 0.014563 0.014563
26.48498 1.56206 -5.559571 -0.5773503 0.5773504 0.5773501 255 255 255 255 0.985437 0.014563
26.48498 1.56206 -6.670083 -0.5773503 0.5773502 -0.5773504 255 255 255 255 0.985437 0.014563
27.59549 0.45155 -6.670081 0.5773503 -0.5773504 -0.5773502 255 255 255 255 0.014563 0.985437
26.48498 0.45155 -6.670081 -0.5773503 -0.5773504 -0.5773501 255 255 255 255 0.014563 0.014563
27.59549 1.56206 -6.670083 0.5773503 0.5773501 -0.5773504 255 255 255 255 0.985437 0.014563
27.59549 0.45155 -5.559569 0.5773503 -0.5773501 0.5773504 255 255 255 255 0.014563 0.985437
27.59549 0.45155 -6.670081 0.5773503 -0.5773504 -0.5773501 255 255 255 255 0.014563 0.014563
26.48498 0.45155 -5.559569 -0.5773503 -0.5773502 0.5773504 255 255 255 255 0.014563 0.985437
27.59549 0.45155 -6.670081 0.5773503 -0.5773504 -0.5773502 255 255 255 255 0.985437 0.014563
27.59549 0.45155 -5.559569 0.5773503 -0.5773501 0.5773504 255 255 255 255 0.985437 0.985437
26.48498 0.45155 -6.670081 -0.5773503 -0.5773504 -0.5773501 255 255 255 255 0.014563 0.985437
26.48498 0.45155 -5.559569 -0.5773503 -0.5773502 0.5773504 255 255 255 255 0.014563 0.014563
27.59549 1.56206 -5.559571 0.5773503 0.5773504 0.5773502 255 255 255 255 0.985437 0.014563
27.59549 0.45155 -5.559569 0.5773503 -0.5773501 0.5773504 255 255 255 255 0.014563 0.014563
-12.8815 1.56206 -5.559571 0.5773503 0.5773504 0.5773501 255 255 255 255 0.985437 0.985437
-13.99201 1.56206 -6.670083 -0.5773503 0.5773502 -0.5773504 255 255 255 255 0.014563 0.014563
-13.99201 1.56206 -5.559571 -0.5773503 0.5773504 0.5773501 255 255 255 255 0.985437 0.014563
-13.99201 1.56206 -6.670083 -0.5773503 0.5773502 -0.5773504 255 255 255 255 0.985437 0.014563
-12.8815 0.45155 -6.670081 0.5773503 -0.5773504 -0.5773502 255 255 255 255 0.014563 0.985437
-13.99201 0.45155 -6.670081 -0.5773503 -0.5773504 -0.5773501 255 255 255 255 0.014563 0.014563
-12.8815 1.56206 -6.670083 0.5773503 0.5773501 -0.5773504 255 255 255 255 0.985437 0.014563
-12.8815 0.45155 -5.559569 0.5773503 -0.5773501 0.5773504 255 255 255 255 0.014563 0.985437
-12.8815 0.45155 -6.670081 0.5773503 -0.5773504 -0.5773501 255 255 255 255 0.014563 0.014563
-13.99201 0.45155 -5.559569 -0.5773503 -0.5773502 0.5773504 255 255 255 255 0.014563 0.985437
-12.8815 0.45155 -6.670081 0.5773503 -0.5773504 -0.5773502 255 255 255 255 0.985437 0.014563
-12.8815 0.45155 -5.559569 0.5773503 -0.5773501 0.5773504 255 255 255 255 0.985437 0.985437
-13.99201 0.45155 -6.670081 -0.5773503 -0.5773504 -0.5773501 255 255 255 255 0.014563 0.985437
-13.99201 0.45155 -5.559569 -0.5773503 -0.5773502 0.5773504 255 255 255 255 0.014563 0.014563
-12.8815 1.56206 -5.559571 0.5773503 0.5773504 0.5773502 255 255 255 255 0.985437 0.014563
-12.8815 0.45155 -5.559569 0.5773503 -0.5773501 0.5773504 255 255 255 255 0.014563 0.014563
-12.67663 2.677608 -5.559571 0.5773504 0.5773504 0.5773501 255 255 255 255 0.985437 0.985437
-13.78714 2.677608 -6.670083 -0.5773504 0.5773501 -0.5773504 255 255 255 255 0.014563 0.014563
-13.78714 2.677608 -5.559571 -0.5773503 0.5773504 0.5773502 255 255 255 255 0.985437 0.014563
-13.78714 2.677608 -6.670083 -0.5773504 0.5773501 -0.5773504 255 255 255 255 0.985437 0.014563
-12.67663 1.567099 -6.670083 0.5773504 -0.5773504 -0.5773501 255 255 255 255 0.014563 0.985437
-13.78714 1.567099 -6.670083 -0.5773503 -0.5773504 -0.5773502 255 255 255 255 0.014563 0.014563
-12.67663 2.677608 -6.670083 0.5773503 0.5773501 -0.5773504 255 255 255 255 0.985437 0.014563
-12.67663 1.567099 -5.559571 0.5773503 -0.5773501 0.5773504 255 255 255 255 0.014563 0.985437
-12.67663 1.567099 -6.670083 0.5773504 -0.5773504 -0.5773501 255 255 255 255 0.014563 0.014563
-13.78714 1.567099 -5.559571 -0.5773504 -0.5773501 0.5773504 255 255 255 255 0.014563 0.985437
-12.67663 1.567099 -6.670083 0.5773504 -0.5773504 -0.5773501 255 255 255 255 0.985437 0.014563
-12.67663 1.567099 -5.559571 0.5773503 -0.5773501 0.5773504 255 255 255 255 0.985437 0.985437
-13.78714 1.567099 -6.670083 -0.5773503 -0.5773504 -0.5773502 255 255 255 255 0.014563 0.985437
-13.78714 1.567099 -5.559571 -0.5773504 -0.5773501 0.5773504 255 255 255 255 0.014563 0.014563
-12.67663 2.677608 -5.559571 0.5773504 0.5773504 0.5773501 255 255 255 255 0.985437 0.014563
-12.67663 1.567099 -5.559571 0.5773503 -0.5773501 0.5773504 255 255 255 255 0.014563 0.014563
-15.13672 2.876705 -7.891006 0.5773503 0.5773503 0.5773502 255 255 255 255 0.985437 0.985437
-16.24723 2.876705 -9.001517 -0.5773503 0.5773501 -0.5773504 255 255 255 255 0.014563 0.014563
-16.24723 2.876705 -7.891006 -0.5773503 0.5773504 0.5773501 255 255 255 255 0.985437 0.014563
-16.24723 2.876705 -9.001517 -0.5773503 0.5773501 -0.5773504 255 255 255 255 0.985437 0.014563
-15.13672 1.766194 -9.001517 0.5773503 -0.5773503 -0.5773502 255 255 255 255 0.014563 0.985437
-16.24723 1.766194 -9.001517 -0.5773503 -0.5773504 -0.5773501 255 255 255 255 0.014563 0.014563
-15.13672 2.876705 -9.001517 0.5773503 0.5773501 -0.5773504 255 255 255 255 0.985437 0.014563
-15.13672 1.766195 -7.891006 0.5773503 -0.5773501 0.5773504 255 255 255 255 0.014563 0.985437
-15.13672 1.766194 -9.001517 0.5773503 -0.5773503 -0.5773502 255 255 255 255 0.014563 0.014563
-16.24723 1.766195 -7.891006 -0.5773503 -0.5773501 0.5773504 255 255 255 255 0.014563 0.985437
-15.13672 1.766194 -9.001517 0.5773503 -0.5773503 -0.5773502 255 255 255 255 0.985437 0.014563
-15.13672 1.766195 -7.891006 0.5773503 -0.5773501 0.5773504 255 255 255 255 0.985437 0.985437
-16.24723 1.766194 -9.001517 -0.5773503 -0.5773504 -0.5773501 255 255 255 255 0.014563 0.985437
-16.24723 1.766195 -7.891006 -0.5773503 -0.5773501 0.5773504 255 255 255 255 0.014563 0.014563
-15.13672 2.876705 -7.891006 0.5773503 0.5773503 0.5773502 255 255 255 255 0.985437 0.014563
-15.13672 1.766195 -7.891006 0.5773503 -0.5773501 0.5773504 255 255 255 255 0.014563 0.014563
-33.2226 1.56206 -5.559571 0.5773503 0.5773504 0.5773501 255 255 255 255 0.985437 0.985437
-34.33311 1.56206 -6.670083 -0.5773503 0.5773502 -0.5773504 255 255 255 255 0.014563 0.014563
-34.33311 1.56206 -5.559571 -0.5773503 0.5773504 0.5773501 255 255 255 255 0.985437 0.014563
-34.33311 1.56206 -6.670083 -0.5773503 0.5773502 -0.5773504 255 255 255 255 0.985437 0.014563
-33.2226 0.45155 -6.670081 0.5773503 -0.5773504 -0.5773502 255 255 255 255 0.014563 0.985437
-34.33311 0.45155 -6.670081 -0.5773503 -0.5773504 -0.5773501 255 255 255 255 0.014563 0.014563
-33.2226 1.56206 -6.670083 0.5773503 0.5773501 -0.5773504 255 255 255 255 0.985437 0.014563
-33.2226 0.45155 -5.559569 0.5773503 -0.5773501 0.5773504 255 255 255 255 0.014563 0.985437
-33.2226 0.45155 -6.670081 0.5773503 -0.5773504 -0.5773501 255 255 255 255 0.014563 0.014563
-34.33311 0.45155 -5.559569 -0.5773503 -0.5773502 0.5773504 255 255 255 255 0.014563 0.985437
-33.2226 0.45155 -6.670081 0.5773503 -0.5773504 -0.5773502 255 255 255 255 0.985437 0.014563
-33.2226 0.45155 -5.559569 0.5773503 -0.5773501 0.5773504 255 255 255 255 0.985437 0.985437
-34.33311 0.45155 -6.670081 -0.5773503 -0.5773504 -0.5773501 255 255 255 255 0.014563 0.985437
-34.33311 0.45155 -5.559569 -0.5773503 -0.5773502 0.5773504 255 255 255 255 0.014563 0.014563
-33.2226 1.56206 -5.559571 0.5773503 0.5773504 0.5773502 255 255 255 255 0.985437 0.014563
-33.2226 0.45155 -5.559569 0.5773503 -0.5773501 0.5773504 255 255 255 255 0.014563 0.014563
-33.01773 2.677608 -5.559571 0.5773503 0.5773504 0.5773501 255 255 255 255 0.985437 0.985437
-34.12824 2.677608 -6.670083 -0.5773503 0.5773502 -0.5773504 255 255 255 255 0.014563 0.014563
-34.12824 2.677608 -5.559571 -0.5773503 0.5773504 0.5773502 255 255 255 255 0.985437 0.014563
-34.12824 2.677608 -6.670083 -0.5773503 0.5773502 -0.5773504 255 255 255 255 0.985437 0.014563
-33.01773 1.567099 -6.670083 0.5773503 -0.5773504 -0.5773501 255 255 255 255 0.014563 0.985437
-34.12824 1.567099 -6.670083 -0.5773503 -0.5773504 -0.5773502 255 255 255 255 0.014563 0.014563
-33.01773 2.677608 -6.670083 0.5773503 0.5773502 -0.5773504 255 255 255 255 0.985437 0.014563
-33.01773 1.567099 -5.559571 0.5773503 -0.5773502 0.5773504 255 255 255 255 0.014563 0.985437
-33.01773 1.567099 -6.670083 0.5773503 -0.5773504 -0.5773501 255 255 255 255 0.014563 0.014563
-34.12824 1.567099 -5.559571 -0.5773503 -0.5773502 0.5773504 255 255 255 255 0.014563 0.985437
-33.01773 1.567099 -6.670083 0.5773503 -0.5773504 -0.5773501 255 255 255 255 0.985437 0.014563
-33.01773 1.567099 -5.559571 0.5773503 -0.5773502 0.5773504 255 255 255 255 0.985437 0.985437
-34.12824 1.567099 -6.670083 -0.5773503 -0.5773504 -0.5773502 255 255 255 255 0.014563 0.985437
-34.12824 1.567099 -5.559571 -0.5773503 -0.5773502 0.5773504 255 255 255 255 0.014563 0.014563
-33.01773 2.677608 -5.559571 0.5773503 0.5773504 0.5773501 255 255 255 255 0.985437 0.014563
-33.01773 1.567099 -5.559571 0.5773503 -0.5773502 0.5773504 255 255 255 255 0.014563 0.014563
-35.47782 2.876705 -7.891006 0.5773503 0.5773504 0.5773501 255 255 255 255 0.985437 0.985437
-36.58833 2.876705 -9.001517 -0.5773503 0.5773502 -0.5773504 255 255 255 255 0.014563 0.014563
-36.58833 2.876705 -7.891006 -0.5773503 0.5773504 0.5773501 255 255 255 255 0.985437 0.014563
-36.58833 2.876705 -9.001517 -0.5773503 0.5773502 -0.5773504 255 255 255 255 0.985437 0.014563
-35.47782 1.766194 -9.001517 0.5773503 -0.5773504 -0.5773502 255 255 255 255 0.014563 0.985437
-36.58833 1.766194 -9.001517 -0.5773503 -0.5773504 -0.5773501 255 255 255 255 0.014563 0.014563
-35.47782 2.876705 -9.001517 0.5773503 0.5773501 -0.5773504 255 255 255 255 0.985437 0.014563
-35.47782 1.766195 -7.891006 0.5773503 -0.5773501 0.5773504 255 255 255 255 0.014563 0.985437
-35.47782 1.766194 -9.001517 0.5773503 -0.5773504 -0.5773501 255 255 255 255 0.014563 0.014563
-36.58833 1.766195 -7.891006 -0.5773503 -0.5773502 0.5773504 255 255 255 255 0.014563 0.985437
-35.47782 1.766194 -9.001517 0.5773503 -0.5773504 -0.5773502 255 255 255 255 0.985437 0.014563
-35.47782 1.766195 -7.891006 0.5773503 -0.5773501 0.5773504 255 255 255 255 0.985437 0.985437
-36.58833 1.766194 -9.001517 -0.5773503 -0.5773504 -0.5773501 255 255 255 255 0.014563 0.985437
-36.58833 1.766195 -7.891006 -0.5773503 -0.5773502 0.5773504 255 255 255 255 0.014563 0.014563
-35.47782 2.876705 -7.891006 0.5773503 0.5773504 0.5773502 255 255 255 255 0.985437 0.014563
-35.47782 1.766195 -7.891006 0.5773503 -0.5773501 0.5773504 255 255 255 255 0.014563 0.014563
-35.60282 1.763325 -7.808736 0.5773503 0.5773504 0.5773501 255 255 255 255 0.985437 0.985437
-36.71333 1.763325 -8.919248 -0.5773503 0.5773502 -0.5773504 255 255 255 255 0.014563 0.014563
-36.71333 1.763325 -7.808736 -0.5773503 0.5773504 0.5773501 255 255 255 255 0.985437 0.014563
-36.71333 1.763325 -8.919248 -0.5773503 0.5773502 -0.5773504 255 255 255 255 0.985437 0.014563
-35.60282 0.4518409 -8.919246 0.5773503 -0.5773504 -0.5773501 255 255 255 255 0.014563 0.985437
-36.71333 0.4518409 -8.919246 -0.5773503 -0.5773504 -0.5773501 255 255 255 255 0.014563 0.014563
-35.60282 1.763325 -8.919248 0.5773503 0.5773502 -0.5773504 255 255 255 255 0.985437 0.014563
-35.60282 0.4518414 -7.808734 0.5773503 -0.5773502 0.5773504 255 255 255 255 0.014563 0.985437
-35.60282 0.4518409 -8.919246 0.5773503 -0.5773504 -0.5773501 255 255 255 255 0.014563 0.014563
-36.71333 0.4518414 -7.808734 -0.5773503 -0.5773502 0.5773504 255 255 255 255 0.014563 0.985437
-35.60282 0.4518409 -8.919246 0.5773503 -0.5773504 -0.5773501 255 255 255 255 0.985437 0.014563
-35.60282 0.4518414 -7.808734 0.5773503 -0.5773502 0.5773504 255 255 255 255 0.985437 0.985437
-36.71333 0.4518409 -8.919246 -0.5773503 -0.5773504 -0.5773501 255 255 255 255 0.014563 0.985437
-36.71333 0.4518414 -7.808734 -0.5773503 -0.5773502 0.5773504 255 255 255 255 0.014563 0.014563
-35.60282 1.763325 -7.808736 0.5773503 0.5773504 0.5773501 255 255 255 255 0.985437 0.014563
-35.60282 0.4518414 -7.808734 0.5773503 -0.5773502 0.5773504 255 255 255 255 0.014563 0.014563
-34.27803 1.549045 9.09646 0.5773503 0.5773504 0.5773502 255 255 255 255 0.985437 0.985437
-35.3172 1.549045 6.482317 -0.5773503 0.5773501 -0.5773504 255 255 255 255 0.014563 0.014563
-35.3172 1.549045 9.09646 -0.5773503 0.5773504 0.5773502 255 255 255 255 0.985437 0.014563
-35.3172 1.549045 6.482317 -0.5773503 0.5773501 -0.5773504 255 255 255 255 0.985437 0.014563
-34.27803 0.509872 6.482317 0.5773503 -0.5773504 -0.5773502 255 255 255 255 0.014563 0.985437
-35.3172 0.509872 6.482317 -0.5773503 -0.5773504 -0.5773502 255 255 255 255 0.014563 0.014563
-34.27803 1.549045 6.482317 0.5773503 0.5773502 -0.5773504 255 255 255 255 0.985437 0.014563
-34.27803 0.509872 9.09646 0.5773503 -0.5773502 0.5773504 255 255 255 255 0.014563 0.985437
-34.27803 0.509872 6.482317 0.5773503 -0.5773504 -0.5773502 255 255 255 255 0.014563 0.014563
-35.3172 0.509872 9.09646 -0.5773503 -0.5773501 0.5773504 255 255 255 255 0.014563 0.985437
-34.27803 0.509872 6.482317 0.5773503 -0.5773504 -0.5773502 255 255 255 255 0.985437 0.014563
-34.27803 0.509872 9.09646 0.5773503 -0.5773502 0.5773504 255 255 255 255 0.985437 0.985437
-35.3172 0.509872 6.482317 -0.5773503 -0.5773504 -0.5773502 255 255 255 255 0.014563 0.985437
-35.3172 0.509872 9.09646 -0.5773503 -0.5773501 0.5773504 255 255 255 255 0.014563 0.014563
-34.27803 1.549045 9.09646 0.5773503 0.5773504 0.5773502 255 255 255 255 0.985437 0.014563
-34.27803 0.509872 9.09646 0.5773503 -0.5773502 0.5773504 255 255 255 255 0.014563 0.014563
-54.17661 1.549046 7.269802 0.577347 0.5773499 -0.577354 255 255 255 255 0.985437 0.985437
-56.79076 1.549045 8.308975 -0.5773497 0.5773516 0.5773495 255 255 255 255 0.014563 0.014563
-54.17661 1.549045 8.308975 0.5773518 0.5773491 0.5773498 255 255 255 255 0.985437 0.014563
-56.79076 1.549045 8.308975 -0.5773497 0.5773516 0.5773495 255 255 255 255 0.985437 0.014563
-56.79076 0.509872 7.269802 -0.5773509 -0.5773486 -0.5773513 255 255 255 255 0.014563 0.985437
-56.79076 0.5098715 8.308975 -0.5773504 -0.5773506 0.5773499 255 255 255 255 0.014563 0.014563
-56.79076 0.509872 7.269802 -0.5773509 -0.5773486 -0.5773513 255 255 255 255 0.014563 0.014563
-54.17661 0.5098724 7.269802 0.5773506 -0.5773505 -0.5773497 255 255 255 255 0.014563 0.985437
-54.17661 0.509872 8.308975 0.5773504 -0.5773501 0.5773503 255 255 255 255 0.014563 0.985437
-56.79076 0.509872 7.269802 -0.5773509 -0.5773486 -0.5773513 255 255 255 255 0.985437 0.014563
-54.17661 0.5098724 7.269802 0.5773506 -0.5773505 -0.5773497 255 255 255 255 0.985437 0.985437
-56.79076 0.5098715 8.308975 -0.5773504 -0.5773506 0.5773499 255 255 255 255 0.014563 0.985437
-54.17661 0.509872 8.308975 0.5773504 -0.5773501 0.5773503 255 255 255 255 0.014563 0.014563
-54.17661 0.5098724 7.269802 0.5773506 -0.5773505 -0.5773497 255 255 255 255 0.014563 0.014563
-54.17661 1.549045 8.308975 0.5773519 0.5773492 0.5773499 255 255 255 255 0.985437 0.985437
-58.13181 2.191442 5.57881 -0.5773515 0.5773497 -0.5773498 255 255 255 255 0.985437 0.985437
-58.1318 0.4227476 6.617984 -0.5773486 -0.5773517 0.5773504 255 255 255 255 0.014563 0.014563
-58.13181 2.191442 6.617984 -0.5773508 0.5773509 0.5773491 255 255 255 255 0.985437 0.014563
-58.1318 0.4227476 6.617984 -0.5773486 -0.5773517 0.5773504 255 255 255 255 0.985437 0.014563
-57.09263 0.4227476 5.57881 0.5773504 -0.5773502 -0.5773502 255 255 255 255 0.014563 0.985437
-57.09263 0.4227476 6.617984 0.5773501 -0.5773502 0.5773504 255 255 255 255 0.014563 0.014563
-58.1318 0.4227471 5.57881 -0.5773481 -0.5773532 -0.5773496 255 255 255 255 0.985437 0.014563
-57.09263 2.191442 5.57881 0.5773503 0.5773506 -0.5773501 255 255 255 255 0.014563 0.985437
-57.09263 0.4227476 5.57881 0.5773504 -0.5773502 -0.5773502 255 255 255 255 0.014563 0.014563
-57.09263 2.191442 6.617984 0.5773502 0.5773503 0.5773504 255 255 255 255 0.014563 0.985437
-57.09263 0.4227476 5.57881 0.5773504 -0.5773502 -0.5773502 255 255 255 255 0.985437 0.014563
-57.09263 2.191442 5.57881 0.5773503 0.5773506 -0.5773501 255 255 255 255 0.985437 0.985437
-57.09263 2.191442 6.617984 0.5773502 0.5773503 0.5773504 255 255 255 255 0.014563 0.014563
-58.1318 0.4227476 6.617984 -0.5773486 -0.5773517 0.5773504 255 255 255 255 0.985437 0.985437
-57.09263 0.4227476 6.617984 0.5773501 -0.5773502 0.5773504 255 255 255 255 0.014563 0.985437
-58.13181 2.191442 5.57881 -0.5773515 0.5773497 -0.5773498 255 255 255 255 0.985437 0.014563
-57.09263 2.191442 5.57881 0.5773503 0.5773506 -0.5773501 255 255 255 255 0.014563 0.014563
-58.88653 1.56206 -5.559571 0.5773503 0.5773504 0.5773501 255 255 255 255 0.985437 0.985437
-59.99703 1.56206 -6.670083 -0.5773503 0.5773501 -0.5773504 255 255 255 255 0.014563 0.014563
-59.99703 1.56206 -5.559571 -0.5773503 0.5773504 0.5773501 255 255 255 255 0.985437 0.014563
-59.99703 1.56206 -6.670083 -0.5773503 0.5773501 -0.5773504 255 255 255 255 0.985437 0.014563
-58.88653 0.45155 -6.670081 0.5773503 -0.5773504 -0.5773501 255 255 255 255 0.014563 0.985437
-59.99703 0.45155 -6.670081 -0.5773503 -0.5773504 -0.5773502 255 255 255 255 0.014563 0.014563
-58.88653 1.56206 -6.670083 0.5773503 0.5773501 -0.5773504 255 255 255 255 0.985437 0.014563
-58.88653 0.45155 -5.559569 0.5773503 -0.5773501 0.5773504 255 255 255 255 0.014563 0.985437
-58.88653 0.45155 -6.670081 0.5773503 -0.5773504 -0.5773501 255 255 255 255 0.014563 0.014563
-59.99703 0.45155 -5.559569 -0.5773503 -0.5773501 0.5773504 255 255 255 255 0.014563 0.985437
-58.88653 0.45155 -6.670081 0.5773503 -0.5773504 -0.5773501 255 255 255 255 0.985437 0.014563
-58.88653 0.45155 -5.559569 0.5773503 -0.5773501 0.5773504 255 255 255 255 0.985437 0.985437
-59.99703 0.45155 -6.670081 -0.5773503 -0.5773504 -0.5773502 255 255 255 255 0.014563 0.985437
-59.99703 0.45155 -5.559569 -0.5773503 -0.5773501 0.5773504 255 255 255 255 0.014563 0.014563
-58.88653 1.56206 -5.559571 0.5773503 0.5773504 0.5773501 255 255 255 255 0.985437 0.014563
-58.88653 0.45155 -5.559569 0.5773503 -0.5773501 0.5773504 255 255 255 255 0.014563 0.014563
15.80628 8.302543 13.15303 0.5773503 0.5773501 -0.5773504 255 255 255 255 0.014563 0.985437
15.80628 8.302543 13.15303 0.5773503 0.5773501 -0.5773504 255 255 255 255 0.985437 0.985437
14.76711 8.302543 13.15303 -0.5773503 0.5773501 -0.5773504 255 255 255 255 0.985437 0.985437
14.76711 8.302543 14.1922 -0.5773503 0.5773504 0.5773502 255 255 255 255 0.985437 0.985437
5.109051 1.465555 4.031792 0.5773502 0.5773502 -0.5773504 255 255 255 255 0.014563 0.985437
5.109051 1.465555 4.031792 0.5773502 0.5773502 -0.5773504 255 255 255 255 0.985437 0.985437
4.069878 1.465555 4.031792 -0.5773504 0.5773501 -0.5773504 255 255 255 255 0.985437 0.985437
4.069878 1.465555 5.070965 -0.5773502 0.5773504 0.5773502 255 255 255 255 0.985437 0.985437
5.14472 1.56206 5.759666 0.5773503 0.5773502 -0.5773504 255 255 255 255 0.014563 0.985437
5.14472 1.56206 5.759666 0.5773503 0.5773502 -0.5773504 255 255 255 255 0.985437 0.985437
4.034208 1.56206 5.759666 -0.5773503 0.5773501 -0.5773504 255 255 255 255 0.985437 0.985437
4.034208 1.562061 6.870177 -0.5773503 0.5773504 0.5773502 255 255 255 255 0.985437 0.985437
10.33993 1.56206 5.759666 0.5773503 0.5773502 -0.5773504 255 255 255 255 0.014563 0.985437
10.33993 1.56206 5.759666 0.5773503 0.5773502 -0.5773504 255 255 255 255 0.985437 0.985437
9.229414 1.56206 5.759666 -0.5773504 0.5773501 -0.5773504 255 255 255 255 0.985437 0.985437
9.229414 1.562061 6.870177 -0.5773503 0.5773504 0.5773502 255 255 255 255 0.985437 0.985437
27.59549 1.56206 -6.670083 0.5773503 0.5773501 -0.5773504 255 255 255 255 0.014563 0.985437
27.59549 1.56206 -6.670083 0.5773503 0.5773501 -0.5773504 255 255 255 255 0.985437 0.985437
26.48498 1.56206 -6.670083 -0.5773503 0.5773502 -0.5773504 255 255 255 255 0.985437 0.985437
26.48498 1.56206 -5.559571 -0.5773503 0.5773504 0.5773501 255 255 255 255 0.985437 0.985437
-12.8815 1.56206 -6.670083 0.5773503 0.5773501 -0.5773504 255 255 255 255 0.014563 0.985437
-12.8815 1.56206 -6.670083 0.5773503 0.5773501 -0.5773504 255 255 255 255 0.985437 0.985437
-13.99201 1.56206 -6.670083 -0.5773503 0.5773502 -0.5773504 255 255 255 255 0.985437 0.985437
-13.99201 1.56206 -5.559571 -0.5773503 0.5773504 0.5773501 255 255 255 255 0.985437 0.985437
-12.67663 2.677608 -6.670083 0.5773503 0.5773501 -0.5773504 255 255 255 255 0.014563 0.985437
-12.67663 2.677608 -6.670083 0.5773503 0.5773501 -0.5773504 255 255 255 255 0.985437 0.985437
-13.78714 2.677608 -6.670083 -0.5773504 0.5773501 -0.5773504 255 255 255 255 0.985437 0.985437
-13.78714 2.677608 -5.559571 -0.5773503 0.5773504 0.5773502 255 255 255 255 0.985437 0.985437
-15.13672 2.876705 -9.001517 0.5773503 0.5773501 -0.5773504 255 255 255 255 0.014563 0.985437
-15.13672 2.876705 -9.001517 0.5773503 0.5773501 -0.5773504 255 255 255 255 0.985437 0.985437
-16.24723 2.876705 -9.001517 -0.5773503 0.5773501 -0.5773504 255 255 255 255 0.985437 0.985437
-16.24723 2.876705 -7.891006 -0.5773503 0.5773504 0.5773501 255 255 255 255 0.985437 0.985437
-33.2226 1.56206 -6.670083 0.5773503 0.5773501 -0.5773504 255 255 255 255 0.014563 0.985437
-33.2226 1.56206 -6.670083 0.5773503 0.5773501 -0.5773504 255 255 255 255 0.985437 0.985437
-34.33311 1.56206 -6.670083 -0.5773503 0.5773502 -0.5773504 255 255 255 255 0.985437 0.985437
-34.33311 1.56206 -5.559571 -0.5773503 0.5773504 0.5773501 255 255 255 255 0.985437 0.985437
-33.01773 2.677608 -6.670083 0.5773503 0.5773502 -0.5773504 255 255 255 255 0.014563 0.985437
-33.01773 2.677608 -6.670083 0.5773503 0.5773502 -0.5773504 255 255 255 255 0.985437 0.985437
-34.12824 2.677608 -6.670083 -0.5773503 0.5773502 -0.5773504 255 255 255 255 0.985437 0.985437
-34.12824 2.677608 -5.559571 -0.5773503 0.5773504 0.5773502 255 255 255 255 0.985437 0.985437
-35.47782 2.876705 -9.001517 0.5773503 0.5773501 -0.5773504 255 255 255 255 0.014563 0.985437
-35.47782 2.876705 -9.001517 0.5773503 0.5773501 -0.5773504 255 255 255 255 0.985437 0.985437
-36.58833 2.876705 -9.001517 -0.5773503 0.5773502 -0.5773504 255 255 255 255 0.985437 0.985437
-36.58833 2.876705 -7.891006 -0.5773503 0.5773504 0.5773501 255 255 255 255 0.985437 0.985437
-35.60282 1.763325 -8.919248 0.5773503 0.5773502 -0.5773504 255 255 255 255 0.014563 0.985437
-35.60282 1.763325 -8.919248 0.5773503 0.5773502 -0.5773504 255 255 255 255 0.985437 0.985437
-36.71333 1.763325 -8.919248 -0.5773503 0.5773502 -0.5773504 255 255 255 255 0.985437 0.985437
-36.71333 1.763325 -7.808736 -0.5773503 0.5773504 0.5773501 255 255 255 255 0.985437 0.985437
-34.27803 1.549045 6.482317 0.5773503 0.5773502 -0.5773504 255 255 255 255 0.014563 0.985437
-34.27803 1.549045 6.482317 0.5773503 0.5773502 -0.5773504 255 255 255 255 0.985437 0.985437
-35.3172 1.549045 6.482317 -0.5773503 0.5773501 -0.5773504 255 255 255 255 0.985437 0.985437
-35.3172 1.549045 9.09646 -0.5773503 0.5773504 0.5773502 255 255 255 255 0.985437 0.985437
-56.79076 1.549045 7.269802 -0.5773492 0.5773528 -0.5773488 255 255 255 255 0.014563 0.985437
-56.79076 1.549045 7.269802 -0.5773492 0.5773528 -0.5773488 255 255 255 255 0.985437 0.985437
-56.79076 1.549045 7.269802 -0.5773492 0.5773528 -0.5773488 255 255 255 255 0.985437 0.014563
-56.79076 1.549045 8.308975 -0.5773497 0.5773516 0.5773495 255 255 255 255 0.985437 0.985437
-54.17661 1.549046 7.269802 0.577347 0.5773499 -0.577354 255 255 255 255 0.985437 0.014563
-58.1318 0.4227471 5.57881 -0.5773481 -0.5773532 -0.5773496 255 255 255 255 0.014563 0.985437
-58.1318 0.4227471 5.57881 -0.5773481 -0.5773532 -0.5773496 255 255 255 255 0.985437 0.985437
-58.13181 2.191442 6.617984 -0.5773508 0.5773509 0.5773491 255 255 255 255 0.985437 0.985437
-58.88653 1.56206 -6.670083 0.5773503 0.5773501 -0.5773504 255 255 255 255 0.014563 0.985437
-58.88653 1.56206 -6.670083 0.5773503 0.5773501 -0.5773504 255 255 255 255 0.985437 0.985437
-59.99703 1.56206 -6.670083 -0.5773503 0.5773501 -0.5773504 255 255 255 255 0.985437 0.985437
-59.99703 1.56206 -5.559571 -0.5773503 0.5773504 0.5773501 255 255 255 255 0.985437 0.985437
3 0 1 2 
3 3 4 5 
3 6 7 8 
3 9 10 11 
3 2 12 13 
3 14 9 15 
3 16 17 18 
3 19 20 21 
3 22 23 24 
3 25 26 27 
3 18 28 29 
3 30 25 31 
3 32 33 34 
3 35 36 37 
3 38 39 40 
3 41 42 43 
3 34 44 45 
3 46 41 47 
3 48 49 50 
3 51 52 53 
3 54 55 56 
3 57 58 59 
3 50 60 61 
3 62 57 63 
3 64 65 66 
3 67 68 69 
3 70 71 72 
3 73 74 75 
3 66 76 77 
3 78 73 79 
3 80 81 82 
3 83 84 85 
3 86 87 88 
3 89 90 91 
3 82 92 93 
3 94 89 95 
3 96 97 98 
3 99 100 101 
3 102 103 104 
3 105 106 107 
3 98 108 109 
3 110 105 111 
3 112 113 114 
3 115 116 117 
3 118 119 120 
3 121 122 123 
3 114 124 125 
3 126 121 127 
3 128 129 130 
3 131 132 133 
3 134 135 136 
3 137 138 139 
3 130 140 141 
3 142 137 143 
3 144 145 146 
3 147 148 149 
3 150 151 152 
3 153 154 155 
3 146 156 157 
3 158 153 159 
3 160 161 162 
3 163 164 165 
3 166 167 168 
3 169 170 171 
3 162 172 173 
3 174 169 175 
3 176 177 178 
3 179 180 181 
3 182 183 184 
3 185 186 187 
3 178 188 189 
3 190 185 191 
3 192 193 194 
3 195 196 197 
3 198 199 200 
3 201 202 203 
3 194 204 205 
3 206 201 207 
3 208 209 210 
3 211 212 213 
3 214 208 215 
3 216 217 218 
3 210 219 220 
3 221 222 216 
3 223 224 225 
3 226 227 228 
3 229 230 231 
3 232 233 234 
3 235 236 237 
3 238 232 239 
3 240 241 242 
3 243 244 245 
3 246 247 248 
3 249 250 251 
3 242 252 253 
3 254 249 255 
3 0 256 1 
3 3 257 4 
3 6 0 7 
3 9 5 10 
3 2 258 12 
3 14 259 9 
3 16 260 17 
3 19 261 20 
3 22 16 23 
3 25 21 26 
3 18 262 28 
3 30 263 25 
3 32 264 33 
3 35 265 36 
3 38 32 39 
3 41 37 42 
3 34 266 44 
3 46 267 41 
3 48 268 49 
3 51 269 52 
3 54 48 55 
3 57 53 58 
3 50 270 60 
3 62 271 57 
3 64 272 65 
3 67 273 68 
3 70 64 71 
3 73 69 74 
3 66 274 76 
3 78 275 73 
3 80 276 81 
3 83 277 84 
3 86 80 87 
3 89 85 90 
3 82 278 92 
3 94 279 89 
3 96 280 97 
3 99 281 100 
3 102 96 103 
3 105 101 106 
3 98 282 108 
3 110 283 105 
3 112 284 113 
3 115 285 116 
3 118 112 119 
3 121 117 122 
3 114 286 124 
3 126 287 121 
3 128 288 129 
3 131 289 132 
3 134 128 135 
3 137 133 138 
3 130 290 140 
3 142 291 137 
3 144 292 145 
3 147 293 148 
3 150 144 151 
3 153 149 154 
3 146 294 156 
3 158 295 153 
3 160 296 161 
3 163 297 164 
3 166 160 167 
3 169 165 170 
3 162 298 172 
3 174 299 169 
3 176 300 177 
3 179 301 180 
3 182 176 183 
3 185 181 186 
3 178 302 188 
3 190 303 185 
3 192 304 193 
3 195 305 196 
3 198 192 199 
3 201 197 202 
3 194 306 204 
3 206 307 201 
3 208 308 209 
3 211 309 212 
3 214 310 208 
3 216 213 217 
3 210 311 219 
3 221 312 222 
3 223 313 224 
3 226 314 227 
3 229 223 230 
3 232 228 233 
3 235 225 236 
3 238 315 232 
3 240 316 241 
3 243 317 244 
3 246 240 247 
3 249 245 250 
3 242 318 252 
3 254 319 249 
